PathFileType	4	(X/Y/Z)	39_2_41_p1_0-561_filt_butterworth.trc
DataRate	CameraRate	NumFrames	NumMarkers	Units	OrigDataRate	OrigDataStartFrame	OrigNumFrames
49.0	49.0	6	27	m	49.0	350	561
Frame#	Time	RHip			RKnee			RAnkle			RBigToe			RSmallToe			RHeel			LHip			LKnee			LAnkle			LBigToe			LSmallToe			LHeel			Neck			Head			Nose			RShoulder			RElbow			RWrist			RThumb			RIndex			RPinky			LShoulder			LElbow			LWrist			LThumb			LIndex			LPinky			
		X1	Y1	Z1	X2	Y2	Z2	X3	Y3	Z3	X4	Y4	Z4	X5	Y5	Z5	X6	Y6	Z6	X7	Y7	Z7	X8	Y8	Z8	X9	Y9	Z9	X10	Y10	Z10	X11	Y11	Z11	X12	Y12	Z12	X13	Y13	Z13	X14	Y14	Z14	X15	Y15	Z15	X16	Y16	Z16	X17	Y17	Z17	X18	Y18	Z18	X19	Y19	Z19	X20	Y20	Z20	X21	Y21	Z21	X22	Y22	Z22	X23	Y23	Z23	X24	Y24	Z24	X25	Y25	Z25	X26	Y26	Z26	X27	Y27	Z27	
350	7.142857142857143	0.307530557064804	0.5988773158702912	0.48474845425009094	0.25948232185756953	0.7189404596696207	0.9252233257310132	0.22103921149319702	0.8136758368497041	1.3119515243733173	0.21581081744076827	0.6339359574953671	1.3386161800580063	0.28082249876738985	0.6704145761212832	1.3548617510073737	0.19053090751918975	0.8978183320574504	1.3666205870108838	0.08054182411595406	0.6301213336349117	0.4686135397379114	0.054867595883926555	0.7385276156429361	0.9009468677819228	0.027046481498382183	0.8345634424032666	1.2971621403794027	0.05720242792291841	0.6427484743578733	1.3294588735755037	-0.0007549634395052181	0.6955608611385891	1.3406329000264217	0.039941834263139485	0.8668574705494816	1.3398336055039504	0.2505579090004435	0.5622423296060856	-0.058168543490606565	0.2696207774856617	0.5117093422595893	-0.2833817428399221	0.25601099540042	0.42349235854347683	-0.1605681161059282	0.41019417936423014	0.5834938601992046	0.05563258168864297	0.44055881227253163	0.619152504110837	0.3129950251083471	0.4122299828027249	0.5696803726615713	0.563599811406616	0.34416171031977516	0.5882294009014695	0.6870595774885305	0.3686034385411664	0.5726859047332655	0.6955971840358404	0.3940377236732403	0.6081808403662889	0.703445546465435	0.08209557199717991	0.6293550841079635	0.022106721257802373	0.010099853493361543	0.6098282447046613	0.2806365326440525	-0.026878639748630535	0.6052297742412623	0.5392276707206856	0.003699182098066415	0.6071055599447992	0.643543768542817	-0.01628275134922686	0.5933659137474486	0.6662098546618372	-0.06742065118578937	0.5994309466300574	0.6454143739439842
351	7.163265306122449	0.3074404782258314	0.597305191738726	0.48482627705932513	0.2591639720457321	0.718361342495953	0.9251284664291175	0.22118159289130418	0.8146245557746085	1.312341500318621	0.21589127003761877	0.6345535840846674	1.3388951101918625	0.2808438227367752	0.6703223647945677	1.3548160533608085	0.19088186035098859	0.894506892546484	1.3651246718923273	0.08051084723855183	0.6301094102742559	0.4687021723697399	0.054889448241904774	0.7384252739279539	0.9009403414987425	0.027079459538363427	0.8345410343352346	1.297160158569533	0.05714419428804028	0.6427811413549027	1.3296605918351105	-0.0008049075950977831	0.6954658396732849	1.3408830832509653	0.03980165281485118	0.8665745242210636	1.340164158494205	0.25061005132702746	0.5624879350327698	-0.05809408713257295	0.2697267929570724	0.5114551970612997	-0.28337204318296844	0.25604172018947025	0.4235086392913513	-0.16077168637363567	0.41028707553930016	0.5840306976887546	0.054599601191990796	0.44054854709345026	0.6191832730599209	0.31309110341481683	0.4122215465722667	0.56975025654314	0.5636093174952208	0.34423425737780866	0.588276850439807	0.6870890765666193	0.3685411804440687	0.5727089116955594	0.6956731814571968	0.3926840552776972	0.6079347798762014	0.7031377848553871	0.08211207808815	0.6293364974909823	0.022001900313254746	0.009878762606937295	0.6096748752689968	0.28054905468462793	-0.02687526054794379	0.6053058721257872	0.5391197451314714	0.0037180163871115934	0.6071935249029952	0.6436012424842085	-0.01633424853356197	0.5934846951129127	0.6676150029021917	-0.06737688294118463	0.5992404548846127	0.6453120499876185
352	7.183673469387755	0.3075341594496832	0.5894671993950191	0.48453028870238424	0.2594088386639959	0.7177087308867073	0.9250992347828746	0.221989017083677	0.8190271457962643	1.314204866371954	0.21696831625271656	0.6354307651148602	1.3393055109312395	0.28095406339046897	0.6705011750955158	1.3548216050272097	0.19169653469395986	0.8982622471943653	1.3668339254566446	0.08047065981147294	0.6300335839381338	0.468756430886226	0.0549289858977542	0.7383120588006116	0.9009387301697598	0.02713345057917809	0.8345681311706685	1.2973472568892073	0.057195298531936445	0.6427872243915691	1.3295126721058517	-0.0007702021150144227	0.6954616822582878	1.340834960216986	0.04033130053803546	0.8669699864755276	1.3406685489934143	0.25059481789433463	0.5624968266419864	-0.05806739848206442	0.2698509681226226	0.5110615101596087	-0.2833292811673913	0.2561864317615512	0.4232674121502345	-0.16159288158776375	0.4104402700499158	0.5840704826469938	0.054364702278575164	0.4404960946661133	0.6192952429034629	0.3132239179967417	0.41221745294730566	0.5698500402266531	0.5635921083622757	0.34439661174950287	0.5884802793529458	0.6870732292847208	0.36852946794708114	0.5728814096513339	0.695786695933609	0.39098081389476663	0.6078509286570166	0.7027485860263878	0.08211008830456032	0.6292795455048752	0.021925592453846718	0.008859670491881421	0.6087486242815128	0.28042255101589597	-0.02688399915594479	0.6053081468741153	0.5390334179983898	0.003706443834732247	0.6071940686898036	0.6436245548990526	-0.016319525427715465	0.5947640142610926	0.667140358361925	-0.06742620745053991	0.5991459733691479	0.6452215484880879
353	7.204081632653061	0.3078029089818523	0.578085043882566	0.4839642677319178	0.2603090504775796	0.7166295974778483	0.9248507891867608	0.22319705100602763	0.8254706948516988	1.3169247958894328	0.21871389811974762	0.6363197731959718	1.339718598601492	0.2810964519896318	0.6708656214899476	1.3548696952378911	0.1927995520029422	0.9083686458855286	1.3713059276927133	0.08043402623954157	0.6298672214666301	0.4686499696795697	0.05496269300518895	0.738275561920708	0.9009435195962678	0.02712098882293989	0.8346116911020017	1.2976106208768126	0.05719733351322001	0.6427924445852705	1.3294561707826578	-0.0007867537566367204	0.6956032205704483	1.34087075554827	0.040798938878715246	0.8673644197718189	1.3407478917876219	0.250559237368731	0.5624658200204655	-0.05811684991416535	0.2695530967914234	0.5118393441204836	-0.28334700435530746	0.2563500560057273	0.42293308018313364	-0.16277914246737213	0.4105505248383161	0.5836860423027144	0.05448636067758164	0.440392886359199	0.6192931124934401	0.31296367590005	0.4122149139659755	0.5699304216514982	0.5635603222115859	0.3444609355511178	0.5887275464645878	0.6869559941915802	0.3685579238416765	0.5732517167746135	0.6958907098174872	0.3898125401126073	0.6077622633162938	0.7025211568747673	0.08208292292256517	0.6292163657447504	0.021918897219799408	0.007320787073266469	0.6074242940998839	0.28024813337208454	-0.026905808924347928	0.6052176130307043	0.5390086907940227	0.003703903088768029	0.6072048282150834	0.6436340557367671	-0.016210446123811784	0.5986686014342268	0.666489717829799	-0.06754046055482689	0.599151254783487	0.6452106589629973
354	7.224489795918367	0.3078918510231798	0.5726169028782471	0.48330710358169005	0.2616953637443233	0.7174480627171692	0.9250216238848907	0.22401838101121643	0.8298523415382901	1.3187746190189085	0.21997156664023146	0.637036477419542	1.3400278059695059	0.2811772570911435	0.6712065039820112	1.3549378867764752	0.19354267136337117	0.9163128683557276	1.3747778913575686	0.08040513512039774	0.6297311054570752	0.4684794659412783	0.05498025457277425	0.7383545204103854	0.9009575128188095	0.026854499541606156	0.8345553217700016	1.297223903690081	0.05711906401224909	0.6425168558836157	1.3294595757966892	-0.0008296794982686366	0.6957420461255445	1.3409211875842009	0.039815038007816814	0.8669195625250853	1.3399341349097251	0.25053370289125654	0.5624735855738654	-0.05817601766452361	0.26838130591279724	0.5154079496328736	-0.28357431504162284	0.2561300562170507	0.4237252749380839	-0.16362225584752552	0.41026828838305845	0.5845425128710277	0.054616086060130714	0.4402558311101332	0.6189537138456206	0.31182481524916394	0.4122185982137916	0.5699825185809152	0.5635278104778713	0.34448176383511164	0.5889275505861965	0.6868085703303453	0.3685822519368374	0.5736983585144997	0.6959621887387039	0.38952208915099695	0.607583094256391	0.7023896418782241	0.08205209023191273	0.6291950693989594	0.02192968274599536	0.005724712254597268	0.6077093582429947	0.2802922591975141	-0.02692117378577031	0.6050929760486979	0.5390090967419872	0.0036953693175795685	0.6072926636039733	0.6436698012391098	-0.016014938863348826	0.6042470662006878	0.6676489285513332	-0.06760642544858789	0.5993157153305816	0.6452669469183512
355	7.244897959183674	0.30798518491862037	0.5774176428504123	0.48262013544334825	0.2627203262054615	0.7217571429650349	0.9262616672159779	0.22420949568968696	0.8308039178431968	1.31917632500027	0.22036505954847113	0.6374118983268786	1.3401731960210272	0.28115157291119247	0.6713513836457469	1.35499777478113	0.19369534850753398	0.918239597359388	1.3756085335609531	0.08039474038925355	0.6297490112605754	0.46840951017180094	0.05499781951990851	0.7384513750744455	0.9009716128632309	0.026441795162458058	0.8343008696971337	1.2954730183394403	0.057049144290425347	0.6420953707414797	1.3294709700144827	-0.0008705664755169493	0.6957340493352515	1.3409465216998628	0.03758704114019262	0.8653782927422722	1.3382807680061881	0.25051858963618234	0.5625018829142784	-0.05822668689691274	0.26672767617403553	0.5208099324756242	-0.2839598528044548	0.25513840010364225	0.42698284064868386	-0.16392096141495457	0.4091491496311609	0.5884616585188368	0.05476606939906714	0.44015692525150374	0.6184285568198575	0.3102042399594851	0.41222662718129194	0.5700114683909062	0.563501162907702	0.344433519054833	0.589117674279539	0.6870420754738509	0.3686195228566611	0.5739612699825014	0.6959898680558595	0.38970084998471116	0.607451311808048	0.7023903959119723	0.0820311907846827	0.629211321147062	0.021935482845162658	0.0037414747262537688	0.6114535176169961	0.28079433133117876	-0.026919417103489624	0.605083841139175	0.5390267539475952	0.0036203378823889813	0.6073673338571441	0.6437085263016149	-0.01598067508304552	0.6080963124272369	0.6693763970369363	-0.06757240944084497	0.599559884628782	0.6453296272328932
